<svg version="1.1" xmlns="http://www.w3.org/2000/svg" xmlns:xlink="http://www.w3.org/1999/xlink" width="168.9" height="166.4"><defs><linearGradient id="HavFBPtEzWob" x1="201.48895810311046px" x2="157.38041650126394px" y1="1053.1879184592763px" y2="669.139583713313px" gradientUnits="userSpaceOnUse"><stop offset="0" stop-color="rgb(211,211,211)" stop-opacity="1"/><stop offset="1" stop-color="rgb(29,122,218)" stop-opacity="1"/></linearGradient><linearGradient id="CPeQlHTuNFXD" x1="610.0747919103007px" x2="201.48895810311046px" y1="1373.3397935017447px" y2="1136.1879184592763px" gradientUnits="userSpaceOnUse"><stop offset="0" stop-color="rgb(211,211,211)" stop-opacity="1"/><stop offset="1" stop-color="rgb(211,211,211)" stop-opacity="1"/></linearGradient></defs><g transform="translate(43.851104189688954,-15.638250079572186) scale(0.1,0.1)"><path fill="rgb(244,236,255)" stroke="rgb(255,255,255)" paint-order="fill stroke markers" d=" M 405.7818750067056 158.38250079572185 L 1240.0747919103007 158.38250079572185 L 1240.0747919103007 158.38250079572185 A 8 8 0 0 1 1248.0747919103007 166.38250079572185 L 1248.0747919103007 1809.8397935017447 L 1248.0747919103007 1809.8397935017447 A 8 8 0 0 1 1240.0747919103007 1817.8397935017447 L -428.51104189688954 1817.8397935017447 L -428.51104189688954 1817.8397935017447 A 8 8 0 0 1 -436.51104189688954 1809.8397935017447 L -436.51104189688954 166.38250079572185 L -436.51104189688954 166.38250079572185 A 8 8 0 0 1 -428.51104189688954 158.38250079572185 L 405.7818750067056 158.38250079572185 Z" fill-opacity="1" stroke-opacity="1" stroke-miterlimit="10" stroke-width="2"/><text fill="rgb(0,0,0)" stroke="none" font-family="Avenir, Helvetica, Arial, sans-serif" font-size="32px" font-style="normal" font-weight="bold" text-decoration="normal" x="405.7818750067056" y="233.38250079572185" text-anchor="middle" dominant-baseline="text-after-edge" fill-opacity="1">.</text><path fill="rgb(255,255,255)" stroke="rgb(211,211,211)" paint-order="fill stroke markers" d=" M 154.48947899791114 359.88250079572185 L 526.8804165012639 359.88250079572185 L 526.8804165012639 359.88250079572185 A 8 8 0 0 1 534.8804165012639 367.88250079572185 L 534.8804165012639 762.139583713313 L 534.8804165012639 762.139583713313 A 8 8 0 0 1 526.8804165012639 770.139583713313 L -217.90145850544167 770.139583713313 L -217.90145850544167 770.139583713313 A 8 8 0 0 1 -225.90145850544167 762.139583713313 L -225.90145850544167 367.88250079572185 L -225.90145850544167 367.88250079572185 A 8 8 0 0 1 -217.90145850544167 359.88250079572185 L 154.48947899791114 359.88250079572185 Z" fill-opacity="1" stroke-opacity="1" stroke-miterlimit="10"/><text fill="rgb(0,0,0)" stroke="none" font-family="Avenir, Helvetica, Arial, sans-serif" font-size="32px" font-style="normal" font-weight="bold" text-decoration="normal" x="154.48947899791114" y="434.88250079572185" text-anchor="middle" dominant-baseline="text-after-edge" fill-opacity="1">variables.tf</text><path fill="rgb(255,255,255)" stroke="rgb(211,211,211)" paint-order="fill stroke markers" d=" M 405.7818750067056 847.6879184592763 L 1038.5747919103007 847.6879184592763 L 1038.5747919103007 847.6879184592763 A 8 8 0 0 1 1046.5747919103007 855.6879184592763 L 1046.5747919103007 1608.3397935017447 L 1046.5747919103007 1608.3397935017447 A 8 8 0 0 1 1038.5747919103007 1616.3397935017447 L -227.01104189688954 1616.3397935017447 L -227.01104189688954 1616.3397935017447 A 8 8 0 0 1 -235.01104189688954 1608.3397935017447 L -235.01104189688954 855.6879184592763 L -235.01104189688954 855.6879184592763 A 8 8 0 0 1 -227.01104189688954 847.6879184592763 L 405.7818750067056 847.6879184592763 Z" fill-opacity="1" stroke-opacity="1" stroke-miterlimit="10"/><text fill="rgb(0,0,0)" stroke="none" font-family="Avenir, Helvetica, Arial, sans-serif" font-size="32px" font-style="normal" font-weight="bold" text-decoration="normal" x="405.7818750067056" y="922.6879184592763" text-anchor="middle" dominant-baseline="text-after-edge" fill-opacity="1">main.tf</text><path fill="rgb(255,255,255)" stroke="rgb(0,0,0)" paint-order="fill stroke markers" d=" M 610.0747919103007 1316.8397935017447 L 935.0747919103007 1316.8397935017447 L 935.0747919103007 1316.8397935017447 A 8 8 0 0 1 943.0747919103007 1324.8397935017447 L 943.0747919103007 1504.8397935017447 L 943.0747919103007 1504.8397935017447 A 8 8 0 0 1 935.0747919103007 1512.8397935017447 L 285.07479191030075 1512.8397935017447 L 285.07479191030075 1512.8397935017447 A 8 8 0 0 1 277.07479191030075 1504.8397935017447 L 277.07479191030075 1324.8397935017447 L 277.07479191030075 1324.8397935017447 A 8 8 0 0 1 285.07479191030075 1316.8397935017447 L 610.0747919103007 1316.8397935017447 Z" fill-opacity="1" stroke-opacity="1" stroke-miterlimit="10" stroke-width="5"/><rect fill="rgb(255,255,255)" stroke="none" x="372.57479191030075" y="1267.8397935017447" width="475" height="96" fill-opacity="1"/><text fill="rgb(0,0,0)" stroke="none" font-family="Avenir, Helvetica, Arial, sans-serif" font-size="32px" font-style="normal" font-weight="bold" text-decoration="normal" x="610.0747919103007" y="1331.8397935017447" text-anchor="middle" dominant-baseline="text-after-edge" fill-opacity="1">aws_ecr_repository_policy</text><path fill="rgb(255,255,255)" stroke="rgb(0,0,0)" paint-order="fill stroke markers" d=" M 201.48895810311046 996.6879184592763 L 526.4889581031105 996.6879184592763 L 526.4889581031105 996.6879184592763 A 8 8 0 0 1 534.4889581031105 1004.6879184592763 L 534.4889581031105 1184.6879184592763 L 534.4889581031105 1184.6879184592763 A 8 8 0 0 1 526.4889581031105 1192.6879184592763 L -123.51104189688954 1192.6879184592763 L -123.51104189688954 1192.6879184592763 A 8 8 0 0 1 -131.51104189688954 1184.6879184592763 L -131.51104189688954 1004.6879184592763 L -131.51104189688954 1004.6879184592763 A 8 8 0 0 1 -123.51104189688954 996.6879184592763 L 201.48895810311046 996.6879184592763 Z" fill-opacity="1" stroke-opacity="1" stroke-miterlimit="10" stroke-width="5"/><rect fill="rgb(255,255,255)" stroke="none" x="18.988958103110463" y="947.6879184592763" width="365" height="96" fill-opacity="1"/><text fill="rgb(0,0,0)" stroke="none" font-family="Avenir, Helvetica, Arial, sans-serif" font-size="32px" font-style="normal" font-weight="bold" text-decoration="normal" x="201.48895810311046" y="1011.6879184592763" text-anchor="middle" dominant-baseline="text-after-edge" fill-opacity="1">aws_ecr_repository</text><path fill="none" stroke="url(#HavFBPtEzWob)" paint-order="fill stroke markers" d=" M 201.48895810311046 1053.1879184592763 L 201.48895810311046 861.1637510862946 L 157.38041650126394 861.1637510862946 L 157.38041650126394 669.139583713313" stroke-linejoin="round" stroke-miterlimit="10" stroke-width="10"/><path fill="none" stroke="url(#CPeQlHTuNFXD)" paint-order="fill stroke markers" d=" M 610.0747919103007 1373.3397935017447 L 610.0747919103007 1254.7638559805105 L 201.48895810311046 1254.7638559805105 L 201.48895810311046 1136.1879184592763" stroke-linejoin="round" stroke-miterlimit="10" stroke-width="10"/><path fill="rgb(225,240,255)" stroke="rgb(29,122,218)" paint-order="fill stroke markers" d=" M 157.38041650126394 588.639583713313 L 423.38041650126394 588.639583713313 L 423.38041650126394 588.639583713313 A 8 8 0 0 1 431.38041650126394 596.639583713313 L 431.38041650126394 658.639583713313 L 431.38041650126394 658.639583713313 A 8 8 0 0 1 423.38041650126394 666.639583713313 L -108.61958349873606 666.639583713313 L -108.61958349873606 666.639583713313 A 8 8 0 0 1 -116.61958349873606 658.639583713313 L -116.61958349873606 596.639583713313 L -116.61958349873606 596.639583713313 A 8 8 0 0 1 -108.61958349873606 588.639583713313 L 157.38041650126394 588.639583713313 Z" fill-opacity="1" stroke-opacity="1" stroke-miterlimit="10" stroke-width="5"/><text fill="rgb(0,0,0)" stroke="none" font-family="Avenir, Helvetica, Arial, sans-serif" font-size="32px" font-style="normal" font-weight="bold" text-decoration="normal" x="157.38041650126394" y="643.639583713313" text-anchor="middle" dominant-baseline="text-after-edge" fill-opacity="1">registry-name</text><path fill="rgb(225,240,255)" stroke="rgb(29,122,218)" paint-order="fill stroke markers" d=" M 151.59854149455833 463.38250079572185 L 417.59854149455833 463.38250079572185 L 417.59854149455833 463.38250079572185 A 8 8 0 0 1 425.59854149455833 471.38250079572185 L 425.59854149455833 533.3825007957219 L 425.59854149455833 533.3825007957219 A 8 8 0 0 1 417.59854149455833 541.3825007957219 L -114.40145850544167 541.3825007957219 L -114.40145850544167 541.3825007957219 A 8 8 0 0 1 -122.40145850544167 533.3825007957219 L -122.40145850544167 471.38250079572185 L -122.40145850544167 471.38250079572185 A 8 8 0 0 1 -114.40145850544167 463.38250079572185 L 151.59854149455833 463.38250079572185 Z" fill-opacity="1" stroke-opacity="1" stroke-miterlimit="10" stroke-width="5"/><text fill="rgb(0,0,0)" stroke="none" font-family="Avenir, Helvetica, Arial, sans-serif" font-size="32px" font-style="normal" font-weight="bold" text-decoration="normal" x="151.59854149455833" y="518.3825007957219" text-anchor="middle" dominant-baseline="text-after-edge" fill-opacity="1">region</text><path fill="rgb(255,255,255)" stroke="rgb(211,211,211)" paint-order="fill stroke markers" d=" M 610.0747919103007 1375.8397935017447 L 876.0747919103007 1375.8397935017447 L 876.0747919103007 1375.8397935017447 A 8 8 0 0 1 884.0747919103007 1383.8397935017447 L 884.0747919103007 1445.8397935017447 L 884.0747919103007 1445.8397935017447 A 8 8 0 0 1 876.0747919103007 1453.8397935017447 L 344.07479191030075 1453.8397935017447 L 344.07479191030075 1453.8397935017447 A 8 8 0 0 1 336.07479191030075 1445.8397935017447 L 336.07479191030075 1383.8397935017447 L 336.07479191030075 1383.8397935017447 A 8 8 0 0 1 344.07479191030075 1375.8397935017447 L 610.0747919103007 1375.8397935017447 Z" fill-opacity="1" stroke-opacity="1" stroke-miterlimit="10" stroke-width="5"/><text fill="rgb(0,0,0)" stroke="none" font-family="Avenir, Helvetica, Arial, sans-serif" font-size="32px" font-style="normal" font-weight="bold" text-decoration="normal" x="610.0747919103007" y="1430.8397935017447" text-anchor="middle" dominant-baseline="text-after-edge" fill-opacity="1">ecr-policy</text><path fill="rgb(255,255,255)" stroke="rgb(211,211,211)" paint-order="fill stroke markers" d=" M 201.48895810311046 1055.6879184592763 L 467.48895810311046 1055.6879184592763 L 467.48895810311046 1055.6879184592763 A 8 8 0 0 1 475.48895810311046 1063.6879184592763 L 475.48895810311046 1125.6879184592763 L 475.48895810311046 1125.6879184592763 A 8 8 0 0 1 467.48895810311046 1133.6879184592763 L -64.51104189688954 1133.6879184592763 L -64.51104189688954 1133.6879184592763 A 8 8 0 0 1 -72.51104189688954 1125.6879184592763 L -72.51104189688954 1063.6879184592763 L -72.51104189688954 1063.6879184592763 A 8 8 0 0 1 -64.51104189688954 1055.6879184592763 L 201.48895810311046 1055.6879184592763 Z" fill-opacity="1" stroke-opacity="1" stroke-miterlimit="10" stroke-width="5"/><text fill="rgb(0,0,0)" stroke="none" font-family="Avenir, Helvetica, Arial, sans-serif" font-size="32px" font-style="normal" font-weight="bold" text-decoration="normal" x="201.48895810311046" y="1110.6879184592763" text-anchor="middle" dominant-baseline="text-after-edge" fill-opacity="1">ecr</text><g transform="scale(10,10) translate(-43.851104189688954,15.638250079572186)"/></g></svg>