<svg version="1.1" xmlns="http://www.w3.org/2000/svg" xmlns:xlink="http://www.w3.org/1999/xlink" width="433.5" height="257.6"><defs><linearGradient id="DkLKMPrFgFFs" x1="2508.6596223229144px" x2="2315.0526079740566px" y1="716.5594330552176px" y2="728.2000007152558px" gradientUnits="userSpaceOnUse"><stop offset="0" stop-color="rgb(211,211,211)" stop-opacity="1"/><stop offset="1" stop-color="rgb(211,211,211)" stop-opacity="1"/></linearGradient><linearGradient id="LgILnsNHeQph" x1="1315.8060672951194px" x2="1272.6075835824577px" y1="943.2952625855453px" y2="739.8960196563306px" gradientUnits="userSpaceOnUse"><stop offset="0" stop-color="rgb(211,211,211)" stop-opacity="1"/><stop offset="1" stop-color="rgb(211,211,211)" stop-opacity="1"/></linearGradient><linearGradient id="BQXhyEoVTffT" x1="1299.3965888899315px" x2="583.3905215948114px" y1="1368.00199267523px" y2="1024.6645511508327px" gradientUnits="userSpaceOnUse"><stop offset="0" stop-color="rgb(211,211,211)" stop-opacity="1"/><stop offset="1" stop-color="rgb(211,211,211)" stop-opacity="1"/></linearGradient><linearGradient id="kPhlwKwFCqMG" x1="174.99061658628744px" x2="72.3999050085236px" y1="1440.9366851688678px" y2="1437.2111875365022px" gradientUnits="userSpaceOnUse"><stop offset="0" stop-color="rgb(211,211,211)" stop-opacity="1"/><stop offset="1" stop-color="rgb(211,211,211)" stop-opacity="1"/></linearGradient><linearGradient id="MWXTtCOKIoPo" x1="996.1075835824577px" x2="765.245592909944px" y1="698.3960196563306px" y2="506.3008542080289px" gradientUnits="userSpaceOnUse"><stop offset="0" stop-color="rgb(211,211,211)" stop-opacity="1"/><stop offset="1" stop-color="rgb(220,71,125)" stop-opacity="1"/></linearGradient><linearGradient id="hxHlStfqrzlZ" x1="498.4145979313157px" x2="840.1971566930201px" y1="105.52237006621348px" y2="-276.9326069726991px" gradientUnits="userSpaceOnUse"><stop offset="0" stop-color="rgb(220,71,125)" stop-opacity="1"/><stop offset="1" stop-color="rgb(29,122,218)" stop-opacity="1"/></linearGradient><linearGradient id="XEFevgJkLwTn" x1="580.2534600363183px" x2="583.3905215948114px" y1="807.1872040457067px" y2="941.6645511508327px" gradientUnits="userSpaceOnUse"><stop offset="0" stop-color="rgb(255,193,7)" stop-opacity="1"/><stop offset="1" stop-color="rgb(211,211,211)" stop-opacity="1"/></linearGradient><linearGradient id="UpZBteHRGhes" x1="583.3905215948114px" x2="-204.1000949914764px" y1="1024.6645511508327px" y2="1395.7111875365022px" gradientUnits="userSpaceOnUse"><stop offset="0" stop-color="rgb(211,211,211)" stop-opacity="1"/><stop offset="1" stop-color="rgb(211,211,211)" stop-opacity="1"/></linearGradient><linearGradient id="sUnVvukWQQQb" x1="306.8905215948114px" x2="44.00654010673247px" y1="983.1645511508327px" y2="915.6415190053106px" gradientUnits="userSpaceOnUse"><stop offset="0" stop-color="rgb(211,211,211)" stop-opacity="1"/><stop offset="1" stop-color="rgb(211,211,211)" stop-opacity="1"/></linearGradient><linearGradient id="OTDWbSuHQCtZ" x1="306.8905215948114px" x2="44.00654010673247px" y1="983.1645511508327px" y2="1048.641519720566px" gradientUnits="userSpaceOnUse"><stop offset="0" stop-color="rgb(211,211,211)" stop-opacity="1"/><stop offset="1" stop-color="rgb(211,211,211)" stop-opacity="1"/></linearGradient><linearGradient id="SOliLZpBikMx" x1="1534.5486269151315px" x2="774.9145979313157px" y1="418.6274881618283px" y2="147.02237006621348px" gradientUnits="userSpaceOnUse"><stop offset="0" stop-color="rgb(211,211,211)" stop-opacity="1"/><stop offset="1" stop-color="rgb(220,71,125)" stop-opacity="1"/></linearGradient><linearGradient id="PbtTqZxaBxAD" x1="1808.5486269151315px" x2="1443.727773136256px" y1="379.6274881618283px" y2="-276.5608514900569px" gradientUnits="userSpaceOnUse"><stop offset="0" stop-color="rgb(211,211,211)" stop-opacity="1"/><stop offset="1" stop-color="rgb(29,122,218)" stop-opacity="1"/></linearGradient><linearGradient id="qgsitkLHhObi" x1="1808.5486269151315px" x2="1272.6075835824577px" y1="457.6274881618283px" y2="656.8960196563306px" gradientUnits="userSpaceOnUse"><stop offset="0" stop-color="rgb(211,211,211)" stop-opacity="1"/><stop offset="1" stop-color="rgb(211,211,211)" stop-opacity="1"/></linearGradient><linearGradient id="fqfFEDykRyLt" x1="2504.1215187192074px" x2="2082.5486269151315px" y1="414.90199052946264px" y2="418.6274881618283px" gradientUnits="userSpaceOnUse"><stop offset="0" stop-color="rgb(211,211,211)" stop-opacity="1"/><stop offset="1" stop-color="rgb(211,211,211)" stop-opacity="1"/></linearGradient><linearGradient id="eCtUaJqlxzvo" x1="2778.1215187192074px" x2="2342.5359259523148px" y1="375.90199052946264px" y2="186.42758386856028px" gradientUnits="userSpaceOnUse"><stop offset="0" stop-color="rgb(211,211,211)" stop-opacity="1"/><stop offset="1" stop-color="rgb(211,211,211)" stop-opacity="1"/></linearGradient><linearGradient id="AhoqOUEUScMR" x1="2342.5359259523148px" x2="2665.690996552191px" y1="103.42758386856028px" y2="-270.59952575787537px" gradientUnits="userSpaceOnUse"><stop offset="0" stop-color="rgb(211,211,211)" stop-opacity="1"/><stop offset="1" stop-color="rgb(29,122,218)" stop-opacity="1"/></linearGradient></defs><g transform="translate(90.9659166149253,66.44326069726992) scale(0.1,0.1)"><path fill="rgb(244,236,255)" stroke="rgb(255,255,255)" paint-order="fill stroke markers" d=" M 1257.7502280868307 -662.4326069726992 L 3415.1596223229144 -662.4326069726992 L 3415.1596223229144 -662.4326069726992 A 8 8 0 0 1 3423.1596223229144 -654.4326069726992 L 3423.1596223229144 1901.4957563266441 L 3423.1596223229144 1901.4957563266441 A 8 8 0 0 1 3415.1596223229144 1909.4957563266441 L -899.659166149253 1909.4957563266441 L -899.659166149253 1909.4957563266441 A 8 8 0 0 1 -907.659166149253 1901.4957563266441 L -907.659166149253 -654.4326069726992 L -907.659166149253 -654.4326069726992 A 8 8 0 0 1 -899.659166149253 -662.4326069726992 L 1257.7502280868307 -662.4326069726992 Z" fill-opacity="1" stroke-opacity="1" stroke-miterlimit="10" stroke-width="2"/><text fill="rgb(0,0,0)" stroke="none" font-family="Avenir, Helvetica, Arial, sans-serif" font-size="32px" font-style="normal" font-weight="bold" text-decoration="normal" x="1257.7502280868307" y="-587.4326069726992" text-anchor="middle" dominant-baseline="text-after-edge" fill-opacity="1">.</text><path fill="rgb(255,255,255)" stroke="rgb(211,211,211)" paint-order="fill stroke markers" d=" M 1752.9440766226055 -460.9326069726991 L 3035.190996552191 -460.9326069726991 L 3035.190996552191 -460.9326069726991 A 8 8 0 0 1 3043.190996552191 -452.9326069726991 L 3043.190996552191 -177.59952575787534 L 3043.190996552191 -177.59952575787534 A 8 8 0 0 1 3035.190996552191 -169.59952575787534 L 470.69715669302013 -169.59952575787534 L 470.69715669302013 -169.59952575787534 A 8 8 0 0 1 462.69715669302013 -177.59952575787534 L 462.69715669302013 -452.9326069726991 L 462.69715669302013 -452.9326069726991 A 8 8 0 0 1 470.69715669302013 -460.9326069726991 L 1752.9440766226055 -460.9326069726991 Z" fill-opacity="1" stroke-opacity="1" stroke-miterlimit="10"/><text fill="rgb(0,0,0)" stroke="none" font-family="Avenir, Helvetica, Arial, sans-serif" font-size="32px" font-style="normal" font-weight="bold" text-decoration="normal" x="1752.9440766226055" y="-385.9326069726991" text-anchor="middle" dominant-baseline="text-after-edge" fill-opacity="1">variables.tf</text><path fill="rgb(255,255,255)" stroke="rgb(211,211,211)" paint-order="fill stroke markers" d=" M 1257.7502280868307 -102.0724161314397 L 3213.6596223229144 -102.0724161314397 L 3213.6596223229144 -102.0724161314397 A 8 8 0 0 1 3221.6596223229144 -94.0724161314397 L 3221.6596223229144 1699.9957563266441 L 3221.6596223229144 1699.9957563266441 A 8 8 0 0 1 3213.6596223229144 1707.9957563266441 L -698.159166149253 1707.9957563266441 L -698.159166149253 1707.9957563266441 A 8 8 0 0 1 -706.159166149253 1699.9957563266441 L -706.159166149253 -94.0724161314397 L -706.159166149253 -94.0724161314397 A 8 8 0 0 1 -698.159166149253 -102.0724161314397 L 1257.7502280868307 -102.0724161314397 Z" fill-opacity="1" stroke-opacity="1" stroke-miterlimit="10"/><text fill="rgb(0,0,0)" stroke="none" font-family="Avenir, Helvetica, Arial, sans-serif" font-size="32px" font-style="normal" font-weight="bold" text-decoration="normal" x="1257.7502280868307" y="-27.072416131439695" text-anchor="middle" dominant-baseline="text-after-edge" fill-opacity="1">main.tf</text><path fill="rgb(255,255,255)" stroke="rgb(0,0,0)" paint-order="fill stroke markers" d=" M 1272.6075835824577 600.3960196563306 L 1597.6075835824577 600.3960196563306 L 1597.6075835824577 600.3960196563306 A 8 8 0 0 1 1605.6075835824577 608.3960196563306 L 1605.6075835824577 788.3960196563306 L 1605.6075835824577 788.3960196563306 A 8 8 0 0 1 1597.6075835824577 796.3960196563306 L 947.6075835824577 796.3960196563306 L 947.6075835824577 796.3960196563306 A 8 8 0 0 1 939.6075835824577 788.3960196563306 L 939.6075835824577 608.3960196563306 L 939.6075835824577 608.3960196563306 A 8 8 0 0 1 947.6075835824577 600.3960196563306 L 1272.6075835824577 600.3960196563306 Z" fill-opacity="1" stroke-opacity="1" stroke-miterlimit="10" stroke-width="5"/><rect fill="rgb(255,255,255)" stroke="none" x="1135.6075835824577" y="551.3960196563306" width="274" height="96" fill-opacity="1"/><text fill="rgb(0,0,0)" stroke="none" font-family="Avenir, Helvetica, Arial, sans-serif" font-size="32px" font-style="normal" font-weight="bold" text-decoration="normal" x="1272.6075835824577" y="615.3960196563306" text-anchor="middle" dominant-baseline="text-after-edge" fill-opacity="1">aws_iam_role</text><path fill="rgb(255,255,255)" stroke="rgb(0,0,0)" paint-order="fill stroke markers" d=" M 2038.5526079740566 630.2000007152558 L 2363.5526079740566 630.2000007152558 L 2363.5526079740566 630.2000007152558 A 8 8 0 0 1 2371.5526079740566 638.2000007152558 L 2371.5526079740566 818.2000007152558 L 2371.5526079740566 818.2000007152558 A 8 8 0 0 1 2363.5526079740566 826.2000007152558 L 1713.5526079740566 826.2000007152558 L 1713.5526079740566 826.2000007152558 A 8 8 0 0 1 1705.5526079740566 818.2000007152558 L 1705.5526079740566 638.2000007152558 L 1705.5526079740566 638.2000007152558 A 8 8 0 0 1 1713.5526079740566 630.2000007152558 L 2038.5526079740566 630.2000007152558 Z" fill-opacity="1" stroke-opacity="1" stroke-miterlimit="10" stroke-width="5"/><rect fill="rgb(255,255,255)" stroke="none" x="1878.5526079740566" y="581.2000007152558" width="320" height="96" fill-opacity="1"/><text fill="rgb(0,0,0)" stroke="none" font-family="Avenir, Helvetica, Arial, sans-serif" font-size="32px" font-style="normal" font-weight="bold" text-decoration="normal" x="2038.5526079740566" y="645.2000007152558" text-anchor="middle" dominant-baseline="text-after-edge" fill-opacity="1">aws_default_vpc</text><path fill="rgb(255,255,255)" stroke="rgb(0,0,0)" paint-order="fill stroke markers" d=" M -232.49345989326753 817.6415190053106 L 92.50654010673247 817.6415190053106 L 92.50654010673247 817.6415190053106 A 8 8 0 0 1 100.50654010673247 825.6415190053106 L 100.50654010673247 1138.641519720566 L 100.50654010673247 1138.641519720566 A 8 8 0 0 1 92.50654010673247 1146.641519720566 L -557.4934598932675 1146.641519720566 L -557.4934598932675 1146.641519720566 A 8 8 0 0 1 -565.4934598932675 1138.641519720566 L -565.4934598932675 825.6415190053106 L -565.4934598932675 825.6415190053106 A 8 8 0 0 1 -557.4934598932675 817.6415190053106 L -232.49345989326753 817.6415190053106 Z" fill-opacity="1" stroke-opacity="1" stroke-miterlimit="10" stroke-width="5"/><rect fill="rgb(255,255,255)" stroke="none" x="-417.4934598932675" y="768.6415190053106" width="370" height="96" fill-opacity="1"/><text fill="rgb(0,0,0)" stroke="none" font-family="Avenir, Helvetica, Arial, sans-serif" font-size="32px" font-style="normal" font-weight="bold" text-decoration="normal" x="-232.49345989326753" y="832.6415190053106" text-anchor="middle" dominant-baseline="text-after-edge" fill-opacity="1">aws_default_subnet</text><path fill="rgb(255,255,255)" stroke="rgb(0,0,0)" paint-order="fill stroke markers" d=" M 498.4145979313157 49.02237006621348 L 823.4145979313157 49.02237006621348 L 823.4145979313157 49.02237006621348 A 8 8 0 0 1 831.4145979313157 57.02237006621348 L 831.4145979313157 237.02237006621348 L 831.4145979313157 237.02237006621348 A 8 8 0 0 1 823.4145979313157 245.02237006621348 L 173.4145979313157 245.02237006621348 L 173.4145979313157 245.02237006621348 A 8 8 0 0 1 165.4145979313157 237.02237006621348 L 165.4145979313157 57.02237006621348 L 165.4145979313157 57.02237006621348 A 8 8 0 0 1 173.4145979313157 49.02237006621348 L 498.4145979313157 49.02237006621348 Z" fill-opacity="1" stroke-opacity="1" stroke-miterlimit="10" stroke-width="5"/><rect fill="rgb(255,255,255)" stroke="none" x="315.9145979313157" y="0.022370066213483142" width="365" height="96" fill-opacity="1"/><text fill="rgb(0,0,0)" stroke="none" font-family="Avenir, Helvetica, Arial, sans-serif" font-size="32px" font-style="normal" font-weight="bold" text-decoration="normal" x="498.4145979313157" y="64.02237006621348" text-anchor="middle" dominant-baseline="text-after-edge" fill-opacity="1">aws_ecr_repository</text><path fill="rgb(255,255,255)" stroke="rgb(0,0,0)" paint-order="fill stroke markers" d=" M 583.3905215948114 885.1645511508327 L 908.3905215948114 885.1645511508327 L 908.3905215948114 885.1645511508327 A 8 8 0 0 1 916.3905215948114 893.1645511508327 L 916.3905215948114 1073.1645511508327 L 916.3905215948114 1073.1645511508327 A 8 8 0 0 1 908.3905215948114 1081.1645511508327 L 258.3905215948114 1081.1645511508327 L 258.3905215948114 1081.1645511508327 A 8 8 0 0 1 250.3905215948114 1073.1645511508327 L 250.3905215948114 893.1645511508327 L 250.3905215948114 893.1645511508327 A 8 8 0 0 1 258.3905215948114 885.1645511508327 L 583.3905215948114 885.1645511508327 Z" fill-opacity="1" stroke-opacity="1" stroke-miterlimit="10" stroke-width="5"/><rect fill="rgb(255,255,255)" stroke="none" x="488.8905215948114" y="836.1645511508327" width="189" height="96" fill-opacity="1"/><text fill="rgb(0,0,0)" stroke="none" font-family="Avenir, Helvetica, Arial, sans-serif" font-size="32px" font-style="normal" font-weight="bold" text-decoration="normal" x="583.3905215948114" y="900.1645511508327" text-anchor="middle" dominant-baseline="text-after-edge" fill-opacity="1">aws_alb</text><path fill="rgb(255,255,255)" stroke="rgb(0,0,0)" paint-order="fill stroke markers" d=" M 1808.5486269151315 323.6274881618283 L 2130.5486269151315 323.6274881618283 L 2130.5486269151315 323.6274881618283 A 8 8 0 0 1 2138.5486269151315 331.6274881618283 L 2138.5486269151315 505.6274881618283 L 2138.5486269151315 505.6274881618283 A 8 8 0 0 1 2130.5486269151315 513.6274881618283 L 1486.5486269151315 513.6274881618283 L 1486.5486269151315 513.6274881618283 A 8 8 0 0 1 1478.5486269151315 505.6274881618283 L 1478.5486269151315 331.6274881618283 L 1478.5486269151315 331.6274881618283 A 8 8 0 0 1 1486.5486269151315 323.6274881618283 L 1808.5486269151315 323.6274881618283 Z" fill-opacity="1" stroke-opacity="1" stroke-miterlimit="10" stroke-width="5"/><rect fill="rgb(255,255,255)" stroke="none" x="1589.0486269151315" y="274.6274881618283" width="439" height="96" fill-opacity="1"/><text fill="rgb(0,0,0)" stroke="none" font-family="Avenir, Helvetica, Arial, sans-serif" font-size="32px" font-style="normal" font-weight="bold" text-decoration="normal" x="1808.5486269151315" y="338.6274881618283" text-anchor="middle" dominant-baseline="text-after-edge" fill-opacity="1">aws_ecs_task_definition</text><path fill="rgb(255,255,255)" stroke="rgb(0,0,0)" paint-order="fill stroke markers" d=" M 488.745592909944 408.3008542080289 L 813.745592909944 408.3008542080289 L 813.745592909944 408.3008542080289 A 8 8 0 0 1 821.745592909944 416.3008542080289 L 821.745592909944 596.3008542080289 L 821.745592909944 596.3008542080289 A 8 8 0 0 1 813.745592909944 604.3008542080289 L 163.74559290994398 604.3008542080289 L 163.74559290994398 604.3008542080289 A 8 8 0 0 1 155.74559290994398 596.3008542080289 L 155.74559290994398 416.3008542080289 L 155.74559290994398 416.3008542080289 A 8 8 0 0 1 163.74559290994398 408.3008542080289 L 488.745592909944 408.3008542080289 Z" fill-opacity="1" stroke-opacity="1" stroke-miterlimit="10" stroke-width="5"/><rect fill="rgb(255,255,255)" stroke="none" x="249.74559290994398" y="359.3008542080289" width="478" height="96" fill-opacity="1"/><text fill="rgb(0,0,0)" stroke="none" font-family="Avenir, Helvetica, Arial, sans-serif" font-size="32px" font-style="normal" font-weight="bold" text-decoration="normal" x="488.745592909944" y="423.3008542080289" text-anchor="middle" dominant-baseline="text-after-edge" fill-opacity="1">aws_iam_policy_document</text><path fill="rgb(255,255,255)" stroke="rgb(0,0,0)" paint-order="fill stroke markers" d=" M 2778.1215187192074 319.90199052946264 L 3100.1215187192074 319.90199052946264 L 3100.1215187192074 319.90199052946264 A 8 8 0 0 1 3108.1215187192074 327.90199052946264 L 3108.1215187192074 501.90199052946264 L 3108.1215187192074 501.90199052946264 A 8 8 0 0 1 3100.1215187192074 509.90199052946264 L 2456.1215187192074 509.90199052946264 L 2456.1215187192074 509.90199052946264 A 8 8 0 0 1 2448.1215187192074 501.90199052946264 L 2448.1215187192074 327.90199052946264 L 2448.1215187192074 327.90199052946264 A 8 8 0 0 1 2456.1215187192074 319.90199052946264 L 2778.1215187192074 319.90199052946264 Z" fill-opacity="1" stroke-opacity="1" stroke-miterlimit="10" stroke-width="5"/><rect fill="rgb(255,255,255)" stroke="none" x="2616.1215187192074" y="270.90199052946264" width="324" height="96" fill-opacity="1"/><text fill="rgb(0,0,0)" stroke="none" font-family="Avenir, Helvetica, Arial, sans-serif" font-size="32px" font-style="normal" font-weight="bold" text-decoration="normal" x="2778.1215187192074" y="334.90199052946264" text-anchor="middle" dominant-baseline="text-after-edge" fill-opacity="1">aws_ecs_service</text><path fill="rgb(255,255,255)" stroke="rgb(0,0,0)" paint-order="fill stroke markers" d=" M 2342.5359259523148 46.927583868560276 L 2667.5359259523148 46.927583868560276 L 2667.5359259523148 46.927583868560276 A 8 8 0 0 1 2675.5359259523148 54.927583868560276 L 2675.5359259523148 234.92758386856028 L 2675.5359259523148 234.92758386856028 A 8 8 0 0 1 2667.5359259523148 242.92758386856028 L 2017.5359259523148 242.92758386856028 L 2017.5359259523148 242.92758386856028 A 8 8 0 0 1 2009.5359259523148 234.92758386856028 L 2009.5359259523148 54.927583868560276 L 2009.5359259523148 54.927583868560276 A 8 8 0 0 1 2017.5359259523148 46.927583868560276 L 2342.5359259523148 46.927583868560276 Z" fill-opacity="1" stroke-opacity="1" stroke-miterlimit="10" stroke-width="5"/><rect fill="rgb(255,255,255)" stroke="none" x="2183.5359259523148" y="-2.0724161314397236" width="318" height="96" fill-opacity="1"/><text fill="rgb(0,0,0)" stroke="none" font-family="Avenir, Helvetica, Arial, sans-serif" font-size="32px" font-style="normal" font-weight="bold" text-decoration="normal" x="2342.5359259523148" y="61.927583868560276" text-anchor="middle" dominant-baseline="text-after-edge" fill-opacity="1">aws_ecs_cluster</text><path fill="rgb(255,255,255)" stroke="rgb(0,0,0)" paint-order="fill stroke markers" d=" M 123.6952607974055 1273.6521163787259 L 842.0496877440638 1273.6521163787259 L 842.0496877440638 1273.6521163787259 A 8 8 0 0 1 850.0496877440638 1281.6521163787259 L 850.0496877440638 1596.4957563266441 L 850.0496877440638 1596.4957563266441 A 8 8 0 0 1 842.0496877440638 1604.4957563266441 L -594.6591661492529 1604.4957563266441 L -594.6591661492529 1604.4957563266441 A 8 8 0 0 1 -602.6591661492529 1596.4957563266441 L -602.6591661492529 1281.6521163787259 L -602.6591661492529 1281.6521163787259 A 8 8 0 0 1 -594.6591661492529 1273.6521163787259 L 123.6952607974055 1273.6521163787259 Z" fill-opacity="1" stroke-opacity="1" stroke-miterlimit="10" stroke-width="5"/><rect fill="rgb(255,255,255)" stroke="none" x="-62.804739202594504" y="1224.6521163787259" width="373" height="96" fill-opacity="1"/><text fill="rgb(0,0,0)" stroke="none" font-family="Avenir, Helvetica, Arial, sans-serif" font-size="32px" font-style="normal" font-weight="bold" text-decoration="normal" x="123.6952607974055" y="1288.6521163787259" text-anchor="middle" dominant-baseline="text-after-edge" fill-opacity="1">aws_security_group</text><path fill="rgb(255,255,255)" stroke="rgb(0,0,0)" paint-order="fill stroke markers" d=" M 2785.1596223229144 618.5594330552176 L 3110.1596223229144 618.5594330552176 L 3110.1596223229144 618.5594330552176 A 8 8 0 0 1 3118.1596223229144 626.5594330552176 L 3118.1596223229144 806.5594330552176 L 3118.1596223229144 806.5594330552176 A 8 8 0 0 1 3110.1596223229144 814.5594330552176 L 2460.1596223229144 814.5594330552176 L 2460.1596223229144 814.5594330552176 A 8 8 0 0 1 2452.1596223229144 806.5594330552176 L 2452.1596223229144 626.5594330552176 L 2452.1596223229144 626.5594330552176 A 8 8 0 0 1 2460.1596223229144 618.5594330552176 L 2785.1596223229144 618.5594330552176 Z" fill-opacity="1" stroke-opacity="1" stroke-miterlimit="10" stroke-width="5"/><rect fill="rgb(255,255,255)" stroke="none" x="2592.1596223229144" y="569.5594330552176" width="386" height="96" fill-opacity="1"/><text fill="rgb(0,0,0)" stroke="none" font-family="Avenir, Helvetica, Arial, sans-serif" font-size="32px" font-style="normal" font-weight="bold" text-decoration="normal" x="2785.1596223229144" y="633.5594330552176" text-anchor="middle" dominant-baseline="text-after-edge" fill-opacity="1">aws_lb_target_group</text><path fill="rgb(255,255,255)" stroke="rgb(0,0,0)" paint-order="fill stroke markers" d=" M 1315.8060672951194 886.7952625855453 L 1640.8060672951194 886.7952625855453 L 1640.8060672951194 886.7952625855453 A 8 8 0 0 1 1648.8060672951194 894.7952625855453 L 1648.8060672951194 1074.7952625855453 L 1648.8060672951194 1074.7952625855453 A 8 8 0 0 1 1640.8060672951194 1082.7952625855453 L 990.8060672951194 1082.7952625855453 L 990.8060672951194 1082.7952625855453 A 8 8 0 0 1 982.8060672951194 1074.7952625855453 L 982.8060672951194 894.7952625855453 L 982.8060672951194 894.7952625855453 A 8 8 0 0 1 990.8060672951194 886.7952625855453 L 1315.8060672951194 886.7952625855453 Z" fill-opacity="1" stroke-opacity="1" stroke-miterlimit="10" stroke-width="5"/><rect fill="rgb(255,255,255)" stroke="none" x="1029.3060672951194" y="837.7952625855453" width="573" height="96" fill-opacity="1"/><text fill="rgb(0,0,0)" stroke="none" font-family="Avenir, Helvetica, Arial, sans-serif" font-size="32px" font-style="normal" font-weight="bold" text-decoration="normal" x="1315.8060672951194" y="901.7952625855453" text-anchor="middle" dominant-baseline="text-after-edge" fill-opacity="1">aws_iam_role_policy_attachment</text><path fill="rgb(255,255,255)" stroke="rgb(0,0,0)" paint-order="fill stroke markers" d=" M 1299.3965888899315 1311.50199267523 L 1624.3965888899315 1311.50199267523 L 1624.3965888899315 1311.50199267523 A 8 8 0 0 1 1632.3965888899315 1319.50199267523 L 1632.3965888899315 1499.50199267523 L 1632.3965888899315 1499.50199267523 A 8 8 0 0 1 1624.3965888899315 1507.50199267523 L 974.3965888899315 1507.50199267523 L 974.3965888899315 1507.50199267523 A 8 8 0 0 1 966.3965888899315 1499.50199267523 L 966.3965888899315 1319.50199267523 L 966.3965888899315 1319.50199267523 A 8 8 0 0 1 974.3965888899315 1311.50199267523 L 1299.3965888899315 1311.50199267523 Z" fill-opacity="1" stroke-opacity="1" stroke-miterlimit="10" stroke-width="5"/><rect fill="rgb(255,255,255)" stroke="none" x="1148.3965888899315" y="1262.50199267523" width="302" height="96" fill-opacity="1"/><text fill="rgb(0,0,0)" stroke="none" font-family="Avenir, Helvetica, Arial, sans-serif" font-size="32px" font-style="normal" font-weight="bold" text-decoration="normal" x="1299.3965888899315" y="1326.50199267523" text-anchor="middle" dominant-baseline="text-after-edge" fill-opacity="1">aws_lb_listener</text><path fill="none" stroke="url(#DkLKMPrFgFFs)" paint-order="fill stroke markers" d=" M 2508.6596223229144 716.5594330552176 L 2411.8561151484855 716.5594330552176 L 2411.8561151484855 728.2000007152558 L 2315.0526079740566 728.2000007152558" stroke-linejoin="round" stroke-miterlimit="10" stroke-width="10"/><path fill="none" stroke="url(#LgILnsNHeQph)" paint-order="fill stroke markers" d=" M 1315.8060672951194 943.2952625855453 L 1315.8060672951194 841.5956411209379 L 1272.6075835824577 841.5956411209379 L 1272.6075835824577 739.8960196563306" stroke-linejoin="round" stroke-miterlimit="10" stroke-width="10"/><path fill="none" stroke="url(#BQXhyEoVTffT)" paint-order="fill stroke markers" d=" M 1299.3965888899315 1368.00199267523 L 1299.3965888899315 1196.3332719130312 L 583.3905215948114 1196.3332719130312 L 583.3905215948114 1024.6645511508327" stroke-linejoin="round" stroke-miterlimit="10" stroke-width="10"/><path fill="none" stroke="url(#kPhlwKwFCqMG)" paint-order="fill stroke markers" d=" M 174.99061658628744 1440.9366851688678 L 123.69526079740552 1440.9366851688678 L 123.69526079740552 1437.2111875365022 L 72.3999050085236 1437.2111875365022" stroke-linejoin="round" stroke-miterlimit="10" stroke-width="10"/><path fill="none" stroke="url(#MWXTtCOKIoPo)" paint-order="fill stroke markers" d=" M 996.1075835824577 698.3960196563306 L 880.6765882462009 698.3960196563306 L 880.6765882462009 506.3008542080289 L 765.245592909944 506.3008542080289" stroke-linejoin="round" stroke-miterlimit="10" stroke-width="10"/><path fill="none" stroke="url(#hxHlStfqrzlZ)" paint-order="fill stroke markers" d=" M 498.4145979313157 105.52237006621348 L 498.4145979313157 -85.70511845324282 L 840.1971566930201 -85.70511845324282 L 840.1971566930201 -276.9326069726991" stroke-linejoin="round" stroke-miterlimit="10" stroke-width="10"/><path fill="none" stroke="url(#XEFevgJkLwTn)" paint-order="fill stroke markers" d=" M 580.2534600363183 807.1872040457067 L 580.2534600363183 874.4258775982697 L 583.3905215948114 874.4258775982697 L 583.3905215948114 941.6645511508327" stroke-linejoin="round" stroke-miterlimit="10" stroke-width="10"/><path fill="none" stroke="url(#UpZBteHRGhes)" paint-order="fill stroke markers" d=" M 583.3905215948114 1024.6645511508327 L 583.3905215948114 1210.1878693436674 L -204.1000949914764 1210.1878693436674 L -204.1000949914764 1395.7111875365022" stroke-linejoin="round" stroke-miterlimit="10" stroke-width="10"/><path fill="none" stroke="url(#sUnVvukWQQQb)" paint-order="fill stroke markers" d=" M 306.8905215948114 983.1645511508327 L 175.44853085077193 983.1645511508327 L 175.44853085077193 915.6415190053106 L 44.00654010673247 915.6415190053106" stroke-linejoin="round" stroke-miterlimit="10" stroke-width="10"/><path fill="none" stroke="url(#OTDWbSuHQCtZ)" paint-order="fill stroke markers" d=" M 306.8905215948114 983.1645511508327 L 175.44853085077193 983.1645511508327 L 175.44853085077193 1048.641519720566 L 44.00654010673247 1048.641519720566" stroke-linejoin="round" stroke-miterlimit="10" stroke-width="10"/><path fill="none" stroke="url(#SOliLZpBikMx)" paint-order="fill stroke markers" d=" M 1534.5486269151315 418.6274881618283 L 1154.7316124232236 418.6274881618283 L 1154.7316124232236 147.02237006621348 L 774.9145979313157 147.02237006621348" stroke-linejoin="round" stroke-miterlimit="10" stroke-width="10"/><path fill="none" stroke="url(#PbtTqZxaBxAD)" paint-order="fill stroke markers" d=" M 1808.5486269151315 379.6274881618283 L 1808.5486269151315 51.533318335885724 L 1443.727773136256 51.533318335885724 L 1443.727773136256 -276.5608514900569" stroke-linejoin="round" stroke-miterlimit="10" stroke-width="10"/><path fill="none" stroke="url(#qgsitkLHhObi)" paint-order="fill stroke markers" d=" M 1808.5486269151315 457.6274881618283 L 1808.5486269151315 557.2617539090795 L 1272.6075835824577 557.2617539090795 L 1272.6075835824577 656.8960196563306" stroke-linejoin="round" stroke-miterlimit="10" stroke-width="10"/><path fill="none" stroke="url(#fqfFEDykRyLt)" paint-order="fill stroke markers" d=" M 2504.1215187192074 414.90199052946264 L 2293.3350728171695 414.90199052946264 L 2293.3350728171695 418.6274881618283 L 2082.5486269151315 418.6274881618283" stroke-linejoin="round" stroke-miterlimit="10" stroke-width="10"/><path fill="none" stroke="url(#eCtUaJqlxzvo)" paint-order="fill stroke markers" d=" M 2778.1215187192074 375.90199052946264 L 2778.1215187192074 281.16478719901147 L 2342.5359259523148 281.16478719901147 L 2342.5359259523148 186.42758386856028" stroke-linejoin="round" stroke-miterlimit="10" stroke-width="10"/><path fill="none" stroke="url(#AhoqOUEUScMR)" paint-order="fill stroke markers" d=" M 2342.5359259523148 103.42758386856028 L 2342.5359259523148 -83.58597094465753 L 2665.690996552191 -83.58597094465753 L 2665.690996552191 -270.59952575787537" stroke-linejoin="round" stroke-miterlimit="10" stroke-width="10"/><path fill="rgb(225,240,255)" stroke="rgb(29,122,218)" paint-order="fill stroke markers" d=" M 840.1971566930201 -357.4326069726991 L 1106.1971566930201 -357.4326069726991 L 1106.1971566930201 -357.4326069726991 A 8 8 0 0 1 1114.1971566930201 -349.4326069726991 L 1114.1971566930201 -287.4326069726991 L 1114.1971566930201 -287.4326069726991 A 8 8 0 0 1 1106.1971566930201 -279.4326069726991 L 574.1971566930201 -279.4326069726991 L 574.1971566930201 -279.4326069726991 A 8 8 0 0 1 566.1971566930201 -287.4326069726991 L 566.1971566930201 -349.4326069726991 L 566.1971566930201 -349.4326069726991 A 8 8 0 0 1 574.1971566930201 -357.4326069726991 L 840.1971566930201 -357.4326069726991 Z" fill-opacity="1" stroke-opacity="1" stroke-miterlimit="10" stroke-width="5"/><text fill="rgb(0,0,0)" stroke="none" font-family="Avenir, Helvetica, Arial, sans-serif" font-size="32px" font-style="normal" font-weight="bold" text-decoration="normal" x="840.1971566930201" y="-302.4326069726991" text-anchor="middle" dominant-baseline="text-after-edge" fill-opacity="1">registry-name</text><path fill="rgb(225,240,255)" stroke="rgb(29,122,218)" paint-order="fill stroke markers" d=" M 2665.690996552191 -351.09952575787537 L 2931.690996552191 -351.09952575787537 L 2931.690996552191 -351.09952575787537 A 8 8 0 0 1 2939.690996552191 -343.09952575787537 L 2939.690996552191 -281.09952575787537 L 2939.690996552191 -281.09952575787537 A 8 8 0 0 1 2931.690996552191 -273.09952575787537 L 2399.690996552191 -273.09952575787537 L 2399.690996552191 -273.09952575787537 A 8 8 0 0 1 2391.690996552191 -281.09952575787537 L 2391.690996552191 -343.09952575787537 L 2391.690996552191 -343.09952575787537 A 8 8 0 0 1 2399.690996552191 -351.09952575787537 L 2665.690996552191 -351.09952575787537 Z" fill-opacity="1" stroke-opacity="1" stroke-miterlimit="10" stroke-width="5"/><text fill="rgb(0,0,0)" stroke="none" font-family="Avenir, Helvetica, Arial, sans-serif" font-size="32px" font-style="normal" font-weight="bold" text-decoration="normal" x="2665.690996552191" y="-296.09952575787537" text-anchor="middle" dominant-baseline="text-after-edge" fill-opacity="1">cluster-name</text><path fill="rgb(225,240,255)" stroke="rgb(29,122,218)" paint-order="fill stroke markers" d=" M 2069.6113753736863 -355.94293744014874 L 2335.6113753736863 -355.94293744014874 L 2335.6113753736863 -355.94293744014874 A 8 8 0 0 1 2343.6113753736863 -347.94293744014874 L 2343.6113753736863 -285.94293744014874 L 2343.6113753736863 -285.94293744014874 A 8 8 0 0 1 2335.6113753736863 -277.94293744014874 L 1803.6113753736863 -277.94293744014874 L 1803.6113753736863 -277.94293744014874 A 8 8 0 0 1 1795.6113753736863 -285.94293744014874 L 1795.6113753736863 -347.94293744014874 L 1795.6113753736863 -347.94293744014874 A 8 8 0 0 1 1803.6113753736863 -355.94293744014874 L 2069.6113753736863 -355.94293744014874 Z" fill-opacity="1" stroke-opacity="1" stroke-miterlimit="10" stroke-width="5"/><text fill="rgb(0,0,0)" stroke="none" font-family="Avenir, Helvetica, Arial, sans-serif" font-size="32px" font-style="normal" font-weight="bold" text-decoration="normal" x="2069.6113753736863" y="-300.94293744014874" text-anchor="middle" dominant-baseline="text-after-edge" fill-opacity="1">region</text><path fill="rgb(225,240,255)" stroke="rgb(29,122,218)" paint-order="fill stroke markers" d=" M 1443.727773136256 -357.0608514900569 L 1709.727773136256 -357.0608514900569 L 1709.727773136256 -357.0608514900569 A 8 8 0 0 1 1717.727773136256 -349.0608514900569 L 1717.727773136256 -287.0608514900569 L 1717.727773136256 -287.0608514900569 A 8 8 0 0 1 1709.727773136256 -279.0608514900569 L 1177.727773136256 -279.0608514900569 L 1177.727773136256 -279.0608514900569 A 8 8 0 0 1 1169.727773136256 -287.0608514900569 L 1169.727773136256 -349.0608514900569 L 1169.727773136256 -349.0608514900569 A 8 8 0 0 1 1177.727773136256 -357.0608514900569 L 1443.727773136256 -357.0608514900569 Z" fill-opacity="1" stroke-opacity="1" stroke-miterlimit="10" stroke-width="5"/><text fill="rgb(0,0,0)" stroke="none" font-family="Avenir, Helvetica, Arial, sans-serif" font-size="32px" font-style="normal" font-weight="bold" text-decoration="normal" x="1443.727773136256" y="-302.0608514900569" text-anchor="middle" dominant-baseline="text-after-edge" fill-opacity="1">image_version</text><path fill="rgb(255,255,255)" stroke="rgb(211,211,211)" paint-order="fill stroke markers" d=" M 1272.6075835824577 659.3960196563306 L 1538.6075835824577 659.3960196563306 L 1538.6075835824577 659.3960196563306 A 8 8 0 0 1 1546.6075835824577 667.3960196563306 L 1546.6075835824577 729.3960196563306 L 1546.6075835824577 729.3960196563306 A 8 8 0 0 1 1538.6075835824577 737.3960196563306 L 1006.6075835824577 737.3960196563306 L 1006.6075835824577 737.3960196563306 A 8 8 0 0 1 998.6075835824577 729.3960196563306 L 998.6075835824577 667.3960196563306 L 998.6075835824577 667.3960196563306 A 8 8 0 0 1 1006.6075835824577 659.3960196563306 L 1272.6075835824577 659.3960196563306 Z" fill-opacity="1" stroke-opacity="1" stroke-miterlimit="10" stroke-width="5"/><text fill="rgb(0,0,0)" stroke="none" font-family="Avenir, Helvetica, Arial, sans-serif" font-size="32px" font-style="normal" font-weight="bold" text-decoration="normal" x="1272.6075835824577" y="714.3960196563306" text-anchor="middle" dominant-baseline="text-after-edge" fill-opacity="1">execution_role</text><path fill="rgb(255,255,255)" stroke="rgb(211,211,211)" paint-order="fill stroke markers" d=" M 2038.5526079740566 689.2000007152558 L 2304.5526079740566 689.2000007152558 L 2304.5526079740566 689.2000007152558 A 8 8 0 0 1 2312.5526079740566 697.2000007152558 L 2312.5526079740566 759.2000007152558 L 2312.5526079740566 759.2000007152558 A 8 8 0 0 1 2304.5526079740566 767.2000007152558 L 1772.5526079740566 767.2000007152558 L 1772.5526079740566 767.2000007152558 A 8 8 0 0 1 1764.5526079740566 759.2000007152558 L 1764.5526079740566 697.2000007152558 L 1764.5526079740566 697.2000007152558 A 8 8 0 0 1 1772.5526079740566 689.2000007152558 L 2038.5526079740566 689.2000007152558 Z" fill-opacity="1" stroke-opacity="1" stroke-miterlimit="10" stroke-width="5"/><text fill="rgb(0,0,0)" stroke="none" font-family="Avenir, Helvetica, Arial, sans-serif" font-size="32px" font-style="normal" font-weight="bold" text-decoration="normal" x="2038.5526079740566" y="744.2000007152558" text-anchor="middle" dominant-baseline="text-after-edge" fill-opacity="1">default_vpc</text><path fill="rgb(255,255,255)" stroke="rgb(211,211,211)" paint-order="fill stroke markers" d=" M -232.49345989326756 876.6415190053106 L 33.506540106732444 876.6415190053106 L 33.506540106732444 876.6415190053106 A 8 8 0 0 1 41.506540106732444 884.6415190053106 L 41.506540106732444 946.6415190053106 L 41.506540106732444 946.6415190053106 A 8 8 0 0 1 33.506540106732444 954.6415190053106 L -498.4934598932675 954.6415190053106 L -498.4934598932675 954.6415190053106 A 8 8 0 0 1 -506.4934598932675 946.6415190053106 L -506.4934598932675 884.6415190053106 L -506.4934598932675 884.6415190053106 A 8 8 0 0 1 -498.4934598932675 876.6415190053106 L -232.49345989326756 876.6415190053106 Z" fill-opacity="1" stroke-opacity="1" stroke-miterlimit="10" stroke-width="5"/><text fill="rgb(0,0,0)" stroke="none" font-family="Avenir, Helvetica, Arial, sans-serif" font-size="32px" font-style="normal" font-weight="bold" text-decoration="normal" x="-232.49345989326756" y="931.6415190053106" text-anchor="middle" dominant-baseline="text-after-edge" fill-opacity="1">default_subnet_a</text><path fill="rgb(255,236,236)" stroke="rgb(220,71,125)" paint-order="fill stroke markers" d=" M 498.4145979313157 108.02237006621348 L 764.4145979313157 108.02237006621348 L 764.4145979313157 108.02237006621348 A 8 8 0 0 1 772.4145979313157 116.02237006621348 L 772.4145979313157 178.02237006621348 L 772.4145979313157 178.02237006621348 A 8 8 0 0 1 764.4145979313157 186.02237006621348 L 232.4145979313157 186.02237006621348 L 232.4145979313157 186.02237006621348 A 8 8 0 0 1 224.4145979313157 178.02237006621348 L 224.4145979313157 116.02237006621348 L 224.4145979313157 116.02237006621348 A 8 8 0 0 1 232.4145979313157 108.02237006621348 L 498.4145979313157 108.02237006621348 Z" fill-opacity="1" stroke-opacity="1" stroke-miterlimit="10" stroke-width="5"/><text fill="rgb(0,0,0)" stroke="none" font-family="Avenir, Helvetica, Arial, sans-serif" font-size="32px" font-style="normal" font-weight="bold" text-decoration="normal" x="498.4145979313157" y="163.02237006621348" text-anchor="middle" dominant-baseline="text-after-edge" fill-opacity="1">ecr</text><path fill="rgb(255,247,224)" stroke="rgb(255,193,7)" paint-order="fill stroke markers" d=" M 580.2534600363183 726.6872040457067 L 846.2534600363183 726.6872040457067 L 846.2534600363183 726.6872040457067 A 8 8 0 0 1 854.2534600363183 734.6872040457067 L 854.2534600363183 796.6872040457067 L 854.2534600363183 796.6872040457067 A 8 8 0 0 1 846.2534600363183 804.6872040457067 L 314.2534600363183 804.6872040457067 L 314.2534600363183 804.6872040457067 A 8 8 0 0 1 306.2534600363183 796.6872040457067 L 306.2534600363183 734.6872040457067 L 306.2534600363183 734.6872040457067 A 8 8 0 0 1 314.2534600363183 726.6872040457067 L 580.2534600363183 726.6872040457067 Z" fill-opacity="1" stroke-opacity="1" stroke-miterlimit="10" stroke-width="5"/><text fill="rgb(0,0,0)" stroke="none" font-family="Avenir, Helvetica, Arial, sans-serif" font-size="32px" font-style="normal" font-weight="bold" text-decoration="normal" x="580.2534600363183" y="781.6872040457067" text-anchor="middle" dominant-baseline="text-after-edge" fill-opacity="1">URL</text><path fill="rgb(255,255,255)" stroke="rgb(211,211,211)" paint-order="fill stroke markers" d=" M 583.3905215948114 944.1645511508327 L 849.3905215948114 944.1645511508327 L 849.3905215948114 944.1645511508327 A 8 8 0 0 1 857.3905215948114 952.1645511508327 L 857.3905215948114 1014.1645511508327 L 857.3905215948114 1014.1645511508327 A 8 8 0 0 1 849.3905215948114 1022.1645511508327 L 317.3905215948114 1022.1645511508327 L 317.3905215948114 1022.1645511508327 A 8 8 0 0 1 309.3905215948114 1014.1645511508327 L 309.3905215948114 952.1645511508327 L 309.3905215948114 952.1645511508327 A 8 8 0 0 1 317.3905215948114 944.1645511508327 L 583.3905215948114 944.1645511508327 Z" fill-opacity="1" stroke-opacity="1" stroke-miterlimit="10" stroke-width="5"/><text fill="rgb(0,0,0)" stroke="none" font-family="Avenir, Helvetica, Arial, sans-serif" font-size="32px" font-style="normal" font-weight="bold" text-decoration="normal" x="583.3905215948114" y="999.1645511508327" text-anchor="middle" dominant-baseline="text-after-edge" fill-opacity="1">alb</text><path fill="rgb(255,193,7)" stroke="none" paint-order="stroke fill markers" d=" M 1808.5486269151315 379.6274881618283 L 2074.5486269151315 379.6274881618283 L 2074.5486269151315 379.6274881618283 A 8 8 0 0 1 2082.5486269151315 387.6274881618283 L 2082.5486269151315 449.6274881618283 L 2082.5486269151315 449.6274881618283 A 8 8 0 0 1 2074.5486269151315 457.6274881618283 L 1542.5486269151315 457.6274881618283 L 1542.5486269151315 457.6274881618283 A 8 8 0 0 1 1534.5486269151315 449.6274881618283 L 1534.5486269151315 387.6274881618283 L 1534.5486269151315 387.6274881618283 A 8 8 0 0 1 1542.5486269151315 379.6274881618283 L 1808.5486269151315 379.6274881618283 Z" fill-opacity="1"/><text fill="rgb(0,0,0)" stroke="none" font-family="Avenir, Helvetica, Arial, sans-serif" font-size="32px" font-style="normal" font-weight="bold" text-decoration="normal" x="1808.5486269151315" y="434.6274881618283" text-anchor="middle" dominant-baseline="text-after-edge" fill-opacity="1">ecs_task</text><path fill="rgb(255,236,236)" stroke="rgb(220,71,125)" paint-order="fill stroke markers" d=" M 488.745592909944 467.3008542080289 L 754.745592909944 467.3008542080289 L 754.745592909944 467.3008542080289 A 8 8 0 0 1 762.745592909944 475.3008542080289 L 762.745592909944 537.3008542080289 L 762.745592909944 537.3008542080289 A 8 8 0 0 1 754.745592909944 545.3008542080289 L 222.74559290994398 545.3008542080289 L 222.74559290994398 545.3008542080289 A 8 8 0 0 1 214.74559290994398 537.3008542080289 L 214.74559290994398 475.3008542080289 L 214.74559290994398 475.3008542080289 A 8 8 0 0 1 222.74559290994398 467.3008542080289 L 488.745592909944 467.3008542080289 Z" fill-opacity="1" stroke-opacity="1" stroke-miterlimit="10" stroke-width="5"/><text fill="rgb(0,0,0)" stroke="none" font-family="Avenir, Helvetica, Arial, sans-serif" font-size="32px" font-style="normal" font-weight="bold" text-decoration="normal" x="488.745592909944" y="522.3008542080289" text-anchor="middle" dominant-baseline="text-after-edge" fill-opacity="1">instance_assume_role_policy</text><path fill="rgb(29,122,218)" stroke="none" paint-order="stroke fill markers" d=" M 2778.1215187192074 375.90199052946264 L 3044.1215187192074 375.90199052946264 L 3044.1215187192074 375.90199052946264 A 8 8 0 0 1 3052.1215187192074 383.90199052946264 L 3052.1215187192074 445.90199052946264 L 3052.1215187192074 445.90199052946264 A 8 8 0 0 1 3044.1215187192074 453.90199052946264 L 2512.1215187192074 453.90199052946264 L 2512.1215187192074 453.90199052946264 A 8 8 0 0 1 2504.1215187192074 445.90199052946264 L 2504.1215187192074 383.90199052946264 L 2504.1215187192074 383.90199052946264 A 8 8 0 0 1 2512.1215187192074 375.90199052946264 L 2778.1215187192074 375.90199052946264 Z" fill-opacity="1"/><text fill="rgb(255,255,255)" stroke="none" font-family="Avenir, Helvetica, Arial, sans-serif" font-size="32px" font-style="normal" font-weight="bold" text-decoration="normal" x="2778.1215187192074" y="430.90199052946264" text-anchor="middle" dominant-baseline="text-after-edge" fill-opacity="1">ecs_service</text><path fill="rgb(255,255,255)" stroke="rgb(211,211,211)" paint-order="fill stroke markers" d=" M 2342.5359259523148 105.92758386856028 L 2608.5359259523148 105.92758386856028 L 2608.5359259523148 105.92758386856028 A 8 8 0 0 1 2616.5359259523148 113.92758386856028 L 2616.5359259523148 175.92758386856028 L 2616.5359259523148 175.92758386856028 A 8 8 0 0 1 2608.5359259523148 183.92758386856028 L 2076.5359259523148 183.92758386856028 L 2076.5359259523148 183.92758386856028 A 8 8 0 0 1 2068.5359259523148 175.92758386856028 L 2068.5359259523148 113.92758386856028 L 2068.5359259523148 113.92758386856028 A 8 8 0 0 1 2076.5359259523148 105.92758386856028 L 2342.5359259523148 105.92758386856028 Z" fill-opacity="1" stroke-opacity="1" stroke-miterlimit="10" stroke-width="5"/><text fill="rgb(0,0,0)" stroke="none" font-family="Avenir, Helvetica, Arial, sans-serif" font-size="32px" font-style="normal" font-weight="bold" text-decoration="normal" x="2342.5359259523148" y="160.92758386856028" text-anchor="middle" dominant-baseline="text-after-edge" fill-opacity="1">ecs</text><path fill="rgb(255,255,255)" stroke="rgb(211,211,211)" paint-order="fill stroke markers" d=" M -204.1000949914764 1398.2111875365022 L 61.899905008523604 1398.2111875365022 L 61.899905008523604 1398.2111875365022 A 8 8 0 0 1 69.8999050085236 1406.2111875365022 L 69.8999050085236 1468.2111875365022 L 69.8999050085236 1468.2111875365022 A 8 8 0 0 1 61.899905008523604 1476.2111875365022 L -470.1000949914764 1476.2111875365022 L -470.1000949914764 1476.2111875365022 A 8 8 0 0 1 -478.1000949914764 1468.2111875365022 L -478.1000949914764 1406.2111875365022 L -478.1000949914764 1406.2111875365022 A 8 8 0 0 1 -470.1000949914764 1398.2111875365022 L -204.1000949914764 1398.2111875365022 Z" fill-opacity="1" stroke-opacity="1" stroke-miterlimit="10" stroke-width="5"/><text fill="rgb(0,0,0)" stroke="none" font-family="Avenir, Helvetica, Arial, sans-serif" font-size="32px" font-style="normal" font-weight="bold" text-decoration="normal" x="-204.1000949914764" y="1453.2111875365022" text-anchor="middle" dominant-baseline="text-after-edge" fill-opacity="1">alb_security_group</text><path fill="rgb(255,255,255)" stroke="rgb(211,211,211)" paint-order="fill stroke markers" d=" M -232.49345989326756 1009.6415197205661 L 33.506540106732444 1009.6415197205661 L 33.506540106732444 1009.6415197205661 A 8 8 0 0 1 41.506540106732444 1017.6415197205661 L 41.506540106732444 1079.641519720566 L 41.506540106732444 1079.641519720566 A 8 8 0 0 1 33.506540106732444 1087.641519720566 L -498.4934598932675 1087.641519720566 L -498.4934598932675 1087.641519720566 A 8 8 0 0 1 -506.4934598932675 1079.641519720566 L -506.4934598932675 1017.6415197205661 L -506.4934598932675 1017.6415197205661 A 8 8 0 0 1 -498.4934598932675 1009.6415197205661 L -232.49345989326756 1009.6415197205661 Z" fill-opacity="1" stroke-opacity="1" stroke-miterlimit="10" stroke-width="5"/><text fill="rgb(0,0,0)" stroke="none" font-family="Avenir, Helvetica, Arial, sans-serif" font-size="32px" font-style="normal" font-weight="bold" text-decoration="normal" x="-232.49345989326756" y="1064.641519720566" text-anchor="middle" dominant-baseline="text-after-edge" fill-opacity="1">default_subnet_b</text><path fill="rgb(255,255,255)" stroke="rgb(211,211,211)" paint-order="fill stroke markers" d=" M 2785.1596223229144 677.5594330552176 L 3051.1596223229144 677.5594330552176 L 3051.1596223229144 677.5594330552176 A 8 8 0 0 1 3059.1596223229144 685.5594330552176 L 3059.1596223229144 747.5594330552176 L 3059.1596223229144 747.5594330552176 A 8 8 0 0 1 3051.1596223229144 755.5594330552176 L 2519.1596223229144 755.5594330552176 L 2519.1596223229144 755.5594330552176 A 8 8 0 0 1 2511.1596223229144 747.5594330552176 L 2511.1596223229144 685.5594330552176 L 2511.1596223229144 685.5594330552176 A 8 8 0 0 1 2519.1596223229144 677.5594330552176 L 2785.1596223229144 677.5594330552176 Z" fill-opacity="1" stroke-opacity="1" stroke-miterlimit="10" stroke-width="5"/><text fill="rgb(0,0,0)" stroke="none" font-family="Avenir, Helvetica, Arial, sans-serif" font-size="32px" font-style="normal" font-weight="bold" text-decoration="normal" x="2785.1596223229144" y="732.5594330552176" text-anchor="middle" dominant-baseline="text-after-edge" fill-opacity="1">target_group</text><path fill="rgb(255,255,255)" stroke="rgb(211,211,211)" paint-order="fill stroke markers" d=" M 1315.8060672951194 945.7952625855453 L 1581.8060672951194 945.7952625855453 L 1581.8060672951194 945.7952625855453 A 8 8 0 0 1 1589.8060672951194 953.7952625855453 L 1589.8060672951194 1015.7952625855453 L 1589.8060672951194 1015.7952625855453 A 8 8 0 0 1 1581.8060672951194 1023.7952625855453 L 1049.8060672951194 1023.7952625855453 L 1049.8060672951194 1023.7952625855453 A 8 8 0 0 1 1041.8060672951194 1015.7952625855453 L 1041.8060672951194 953.7952625855453 L 1041.8060672951194 953.7952625855453 A 8 8 0 0 1 1049.8060672951194 945.7952625855453 L 1315.8060672951194 945.7952625855453 Z" fill-opacity="1" stroke-opacity="1" stroke-miterlimit="10" stroke-width="5"/><text fill="rgb(0,0,0)" stroke="none" font-family="Avenir, Helvetica, Arial, sans-serif" font-size="32px" font-style="normal" font-weight="bold" text-decoration="normal" x="1315.8060672951194" y="1000.7952625855453" text-anchor="middle" dominant-baseline="text-after-edge" fill-opacity="1">execution_policy</text><path fill="rgb(255,255,255)" stroke="rgb(211,211,211)" paint-order="fill stroke markers" d=" M 1299.3965888899315 1370.50199267523 L 1565.3965888899315 1370.50199267523 L 1565.3965888899315 1370.50199267523 A 8 8 0 0 1 1573.3965888899315 1378.50199267523 L 1573.3965888899315 1440.50199267523 L 1573.3965888899315 1440.50199267523 A 8 8 0 0 1 1565.3965888899315 1448.50199267523 L 1033.3965888899315 1448.50199267523 L 1033.3965888899315 1448.50199267523 A 8 8 0 0 1 1025.3965888899315 1440.50199267523 L 1025.3965888899315 1378.50199267523 L 1025.3965888899315 1378.50199267523 A 8 8 0 0 1 1033.3965888899315 1370.50199267523 L 1299.3965888899315 1370.50199267523 Z" fill-opacity="1" stroke-opacity="1" stroke-miterlimit="10" stroke-width="5"/><text fill="rgb(0,0,0)" stroke="none" font-family="Avenir, Helvetica, Arial, sans-serif" font-size="32px" font-style="normal" font-weight="bold" text-decoration="normal" x="1299.3965888899315" y="1425.50199267523" text-anchor="middle" dominant-baseline="text-after-edge" fill-opacity="1">listener</text><path fill="rgb(255,255,255)" stroke="rgb(211,211,211)" paint-order="fill stroke markers" d=" M 451.49061658628744 1401.9366851688678 L 717.4906165862874 1401.9366851688678 L 717.4906165862874 1401.9366851688678 A 8 8 0 0 1 725.4906165862874 1409.9366851688678 L 725.4906165862874 1471.9366851688678 L 725.4906165862874 1471.9366851688678 A 8 8 0 0 1 717.4906165862874 1479.9366851688678 L 185.49061658628744 1479.9366851688678 L 185.49061658628744 1479.9366851688678 A 8 8 0 0 1 177.49061658628744 1471.9366851688678 L 177.49061658628744 1409.9366851688678 L 177.49061658628744 1409.9366851688678 A 8 8 0 0 1 185.49061658628744 1401.9366851688678 L 451.49061658628744 1401.9366851688678 Z" fill-opacity="1" stroke-opacity="1" stroke-miterlimit="10" stroke-width="5"/><text fill="rgb(0,0,0)" stroke="none" font-family="Avenir, Helvetica, Arial, sans-serif" font-size="32px" font-style="normal" font-weight="bold" text-decoration="normal" x="451.49061658628744" y="1456.9366851688678" text-anchor="middle" dominant-baseline="text-after-edge" fill-opacity="1">ecs_service_security_group</text><g transform="scale(10,10) translate(-90.9659166149253,-66.44326069726992)"/></g></svg>